<?xml version="1.0" encoding="utf-8"?>
<!-- Generator: Adobe Illustrator 23.0.1, SVG Export Plug-In . SVG Version: 6.00 Build 0)  -->
<svg version="1.1" xmlns="http://www.w3.org/2000/svg" xmlns:xlink="http://www.w3.org/1999/xlink" x="0px" y="0px" width="400px"
	 height="400px" viewBox="0 0 400 400" enable-background="new 0 0 400 400" xml:space="preserve">
<g id="Layer_2">
</g>
<g id="Layer_1">
	<path fill="#FF5555" d="M330.04,1.96c34.85-0.05,39.71,0,69.96,0.05c-1.19,2.18-1.53,4.3-1.56,6.4C398.39,13.15,398-40.12,400,2 C298,0,292.99,1.72,264,2c-45,0.44-79-0.88-151,0C23.25,3.09,53,4.63,2,2c1-15.09-0.63,3.91,0.04,2.99c0.37-0.51,0.1-3.02,0.1-3.02 s24.76,0.01,31.57,0c8.85-0.01,152.37,0.01,188.42,0.02C262.11,2,290.08,2.02,330.04,1.96z"/>
</g>
</svg>
