<?xml version="1.0" encoding="utf-8"?>
<!-- Generator: Adobe Illustrator 23.0.1, SVG Export Plug-In . SVG Version: 6.00 Build 0)  -->
<svg version="1.1" id="Layer_1" xmlns="http://www.w3.org/2000/svg" xmlns:xlink="http://www.w3.org/1999/xlink" x="0px" y="0px"
	 width="400px" height="400px" viewBox="0 0 400 400" enable-background="new 0 0 400 400" xml:space="preserve">
<g>
	<path fill="#FF5555" d="M330.04,1.99c34.85-0.11,39.71,0,69.96,0.12c-1.19,4.96-1.53,9.81-1.56,14.59 C398.39,27.49,397,161,387,246.02c-28.55,156.62-60.68,60.25-92.36,21.36c-29.64-36.38-52.9-30.3-54.72-30.11 C151.06,246.25,153.09,344.19,84,309C4,268.25,13,183.84,2,241.9C3,207.49,1.37,10.98,2.04,8.88c0.37-1.16,0.1-6.89,0.1-6.89 S26.9,2,33.71,1.99c8.85-0.02,152.37,0.03,188.42,0.06C262.11,2.07,290.08,2.11,330.04,1.99z"/>
</g>
</svg>
