<?xml version="1.0" encoding="utf-8"?>
<!-- Generator: Adobe Illustrator 23.0.1, SVG Export Plug-In . SVG Version: 6.00 Build 0)  -->
<svg version="1.1" xmlns="http://www.w3.org/2000/svg" xmlns:xlink="http://www.w3.org/1999/xlink" x="0px" y="0px" width="400px"
	 height="400px" viewBox="0 0 400 400" enable-background="new 0 0 400 400" xml:space="preserve">
<g id="Layer_2">
</g>
<g id="Layer_1">
	<path fill="#FF5555" d="M330.04,5c34.85,0,39.71,0,69.96,0c-1.19,0.03-1.53,0.06-1.56,0.1c-0.05,0.07,1.53,0.14-1.3,0.21
		c-56.12,0-77.07,0-100.88,0c-21.12,0-44.5,0-96.68,0c-119.42,0-155.8,0-199.59,0c3.47-0.03,1.37-0.25,2.04-0.26
		C2.4,5.04,2.14,5,2.14,5S26.9,5,33.71,5c8.85,0,152.37,0,188.42,0C262.11,5,290.08,5,330.04,5z"/>
</g>
</svg>
