<?xml version="1.0" encoding="utf-8"?>
<!-- Generator: Adobe Illustrator 23.0.1, SVG Export Plug-In . SVG Version: 6.00 Build 0)  -->
<svg version="1.1" id="Layer_1" xmlns="http://www.w3.org/2000/svg" xmlns:xlink="http://www.w3.org/1999/xlink" x="0px" y="0px"
	 width="400px" height="400px" viewBox="0 0 400 400" enable-background="new 0 0 400 400" xml:space="preserve">
<g>
	<path d="M330.04,1.99c34.85-0.11,39.71,0,69.96,0.12c-1.19,4.96-1.53,9.81-1.56,14.59C398.39,27.49,394,298,396,394 c-69-17-96.57-69.62-108.16-93.84c-15.46-32.29-60.85-33.73-78.31-2.48C191.4,330.1,172.34,370.8,129,372 C39.25,374.49,53.02,140,2.02,134c1-34.4-0.65-123.02,0.02-125.12c0.37-1.16,0.1-6.89,0.1-6.89S26.9,2,33.71,1.99 c8.85-0.02,152.37,0.03,188.42,0.06C262.11,2.07,290.08,2.11,330.04,1.99z"/>
</g>
</svg>
