<?xml version="1.0" encoding="utf-8"?>
<!-- Generator: Adobe Illustrator 23.0.1, SVG Export Plug-In . SVG Version: 6.00 Build 0)  -->
<svg version="1.1" id="Layer_1" xmlns="http://www.w3.org/2000/svg" xmlns:xlink="http://www.w3.org/1999/xlink" x="0px" y="0px"
	 width="400px" height="400px" viewBox="0 0 400 400" enable-background="new 0 0 400 400" xml:space="preserve">
<g>
	<path d="M330.04,1.97c34.85-0.05,39.71,0,69.96,0.06c-1.19,2.31-1.53,4.56-1.56,6.78c-0.05,5.02,1.53,9.86-1.3,14.7
		C379,84.14,344.46,134.53,319.75,150.02c-32.79,20.56-74.4,21.7-108.43,3.27c-4.43-2.4-8.92-5.13-13.46-8.27
		c-15.51-10.71-28.58-24.56-38.98-40.28C91.35,2.68,12.62,12.92,2,39C3,23,1.37,6.15,2.04,5.17c0.37-0.54,0.1-3.2,0.1-3.2
		s24.76,0.01,31.57,0C42.56,1.96,186.08,1.98,222.13,2C262.11,2,290.08,2.02,330.04,1.97z"/>
</g>
</svg>
