<?xml version="1.0" encoding="utf-8"?>
<!-- Generator: Adobe Illustrator 23.0.1, SVG Export Plug-In . SVG Version: 6.00 Build 0)  -->
<svg version="1.1" id="Layer_1" xmlns="http://www.w3.org/2000/svg" xmlns:xlink="http://www.w3.org/1999/xlink" x="0px" y="0px"
	 width="400px" height="400px" viewBox="0 0 400 400" enable-background="new 0 0 400 400" xml:space="preserve">
<g>
	<path d="M330.04,1.99c34.85-0.11,39.71,0,69.96,0.12c-1.19,4.96-1.53,9.81-1.56,14.59C398.39,27.49,394,298,396,394 c-52.04-4.95-79.01-0.56-108,0.08c-45,1-79-2.08-151-0.08c-89.75,2.49-72,0.08-135,0C3,359.6,1.37,10.98,2.04,8.88 c0.37-1.16,0.1-6.89,0.1-6.89S26.9,2,33.71,1.99c8.85-0.02,152.37,0.03,188.42,0.06C262.11,2.07,290.08,2.11,330.04,1.99z"/>
</g>
</svg>
