<?xml version="1.0" encoding="utf-8"?>
<!-- Generator: Adobe Illustrator 23.0.1, SVG Export Plug-In . SVG Version: 6.00 Build 0)  -->
<svg version="1.1" xmlns="http://www.w3.org/2000/svg" xmlns:xlink="http://www.w3.org/1999/xlink" x="0px" y="0px" width="400px"
	 height="400px" viewBox="0 0 400 400" enable-background="new 0 0 400 400" xml:space="preserve">
<g id="Layer_2">
</g>
<g id="Layer_1">
	<path fill="#FF5555" d="M330.04,1.99c34.85-0.11,39.71,0,69.96,0.12c-1.19,4.96-1.53,9.81-1.56,14.59
		C398.39,27.49,397,161,387,246.02c-29,159.11-65,13.43-96,6.98c-21.02-4.38-55.12,29.79-125-5.8c-80-40.75-153-63.36-164-5.3
		C3,207.49,1.37,10.98,2.04,8.88c0.37-1.16,0.1-6.89,0.1-6.89S26.9,2,33.71,1.99c8.85-0.02,152.37,0.03,188.42,0.06
		C262.11,2.07,290.08,2.11,330.04,1.99z"/>
</g>
</svg>
