<?xml version="1.0" encoding="utf-8"?>
<!-- Generator: Adobe Illustrator 23.0.1, SVG Export Plug-In . SVG Version: 6.00 Build 0)  -->
<svg version="1.1" xmlns="http://www.w3.org/2000/svg" xmlns:xlink="http://www.w3.org/1999/xlink" x="0px" y="0px" width="400px"
	 height="400px" viewBox="0 0 400 400" enable-background="new 0 0 400 400" xml:space="preserve">
<g id="Layer_2">
</g>
<g id="Layer_1">
	<path fill="#FF5555" d="M211.35,1.96c3.06-0.05,3.49,0,6.15,0.05c-0.1,2.18-0.13,4.3-0.14,6.4c0,4.74-0.04-48.54,0.14-6.42 c-8.97-2-9.41-0.28-11.96,0c-3.96,0.44-6.94-0.88-13.27,0c-7.89,1.09-5.27,2.63-9.76,0c0.09-15.09-0.06,3.91,0,2.99 c0.03-0.51,0.01-3.02,0.01-3.02s2.18,0.01,2.78,0c0.78-0.01,13.4,0.01,16.56,0.02C205.38,2,207.84,2.02,211.35,1.96z"/>
</g>
</svg>
