<?xml version="1.0" encoding="utf-8"?>
<!-- Generator: Adobe Illustrator 23.0.1, SVG Export Plug-In . SVG Version: 6.00 Build 0)  -->
<svg version="1.1" id="Layer_1" xmlns="http://www.w3.org/2000/svg" xmlns:xlink="http://www.w3.org/1999/xlink" x="0px" y="0px"
	 width="400px" height="400px" viewBox="0 0 400 400" enable-background="new 0 0 400 400" xml:space="preserve">
<g>
	<path d="M330.04,1.99c30.47-0.1,38.01-0.02,59.64,0.08c5.21,0.02,9.26,4.45,8.92,9.65c-0.11,1.67-0.15,3.33-0.16,4.99 c-0.05,10.78-1.44,143.98-11.4,229.01c-0.02,0.21-0.07,0.41-0.09,0.62C376.31,330.99,355.4,357,332,366.31 c-23.3,9.27-48.84,11.3-73.47,6.6c-68.7-13.11-16.48-117.41-97.44-94.07c-31.54,9.09-65.57-0.82-87.67-25.09 c-25.12-27.6-38.56-52.25-56.57-38.52c-5.97,4.56-14.56,0.45-14.55-7.06C2.47,141.25,1.5,11.14,2.04,8.89l0.01-0.05 c1.2-4.06,4.93-6.85,9.17-6.85c7.79,0,18.39,0,22.49,0c8.85-0.02,152.37,0.03,188.42,0.06C262.11,2.07,290.08,2.11,330.04,1.99z"/>
</g>
</svg>
