<?xml version="1.0" encoding="utf-8"?>
<!-- Generator: Adobe Illustrator 23.0.1, SVG Export Plug-In . SVG Version: 6.00 Build 0)  -->
<svg version="1.1" id="Layer_1" xmlns="http://www.w3.org/2000/svg" xmlns:xlink="http://www.w3.org/1999/xlink" x="0px" y="0px"
	 width="400px" height="400px" viewBox="0 0 400 400" enable-background="new 0 0 400 400" xml:space="preserve">
<g>
	<path d="M330.04,1.96c34.85-0.05,39.71,0,69.96,0.05c-1.19,2.18-1.53,4.3-1.56,6.4C398.39,13.15,394,45.88,396,88 c-58.22-70.05-69.27,75.9-116.72,46.36c-16.72-10.41-36.72-14.41-55.91-9.96c-72,16.7-42.37,75.6-117.37,75.6 C16.25,201.1,53,23.63,2,21C3,5.91,1.37,5.91,2.04,4.99c0.37-0.51,0.1-3.02,0.1-3.02s24.76,0.01,31.57,0 c8.85-0.01,152.37,0.01,188.42,0.02C262.11,2,290.08,2.02,330.04,1.96z"/>
</g>
</svg>
