<?xml version="1.0" encoding="utf-8"?>
<!-- Generator: Adobe Illustrator 23.0.1, SVG Export Plug-In . SVG Version: 6.00 Build 0)  -->
<svg version="1.1" id="Layer_1" xmlns="http://www.w3.org/2000/svg" xmlns:xlink="http://www.w3.org/1999/xlink" x="0px" y="0px"
	 width="400px" height="400px" viewBox="0 0 400 400" enable-background="new 0 0 400 400" xml:space="preserve">
<g>
	<path d="M330,3.97c34.86,0,39.71,0,70,0c-1.14,0.27-1.57,0.54-1.57,0.81c0,0.54,1.57,1.08-1.29,1.62c-56.14,0-77,0-100.86,0 c-21.14,0-44.43,0-96.71,0c-119.43,0-155.86,0-199.57,0c3.43-0.27,1.43-2.03,2-2.16c0.43,0,0.14-0.41,0.14-0.41s24.71,0,31.57,0 c8.86,0,152.43,0,188.43,0C262.14,3.97,290.14,3.97,330,3.97z"/>
</g>
</svg>
