<?xml version="1.0" encoding="utf-8"?>
<!-- Generator: Adobe Illustrator 23.0.1, SVG Export Plug-In . SVG Version: 6.00 Build 0)  -->
<svg version="1.1" id="Layer_1" xmlns="http://www.w3.org/2000/svg" xmlns:xlink="http://www.w3.org/1999/xlink" x="0px" y="0px"
	 width="400px" height="400px" viewBox="0 0 400 400" enable-background="new 0 0 400 400" xml:space="preserve">
<g>
	<path fill="#1C1C1C" d="M330.04,1.97c34.85-0.05,39.71,0,69.96,0.06c-1.19,2.31-1.53,4.56-1.56,6.78c-0.05,5.02,1.53,9.86-1.3,14.7 c-15.77,45.68-26.87,76.77-33.25,100.09C343,200,281.07,213.16,210.26,163.87c-2.16-1.51-4.27-2.95-6.33-4.34 c-23.96-16.23-45.15-36.18-62.99-58.97C32.59-37.87,12.39,13.5,2,39C3,23,1.37,6.15,2.04,5.17c0.37-0.54,0.1-3.2,0.1-3.2 s24.76,0.01,31.57,0C42.56,1.96,186.08,1.98,222.13,2C262.11,2,290.08,2.02,330.04,1.97z"/>
</g>
</svg>
