<?xml version="1.0" encoding="utf-8"?>
<!-- Generator: Adobe Illustrator 23.0.1, SVG Export Plug-In . SVG Version: 6.00 Build 0)  -->
<svg version="1.1" id="Layer_1" xmlns="http://www.w3.org/2000/svg" xmlns:xlink="http://www.w3.org/1999/xlink" x="0px" y="0px"
	 width="400px" height="400px" viewBox="0 0 400 400" enable-background="new 0 0 400 400" xml:space="preserve">
<g>
	<path d="M209.1,2.82c2.44,0,2.78,0,4.9,0c-0.08,0.02-0.11,0.04-0.11,0.06c0,0.04,0.11,0.08-0.09,0.12c-3.93,0-5.39,0-7.06,0 c-1.48,0-3.11,0-6.77,0c-8.36,0-10.91,0-13.97,0c0.24-0.02,0.1-0.15,0.14-0.16c0.03,0,0.01-0.03,0.01-0.03s1.73,0,2.21,0 c0.62,0,10.67,0,13.19,0C204.35,2.82,206.31,2.82,209.1,2.82z"/>
</g>
</svg>
